# ProBuilder 5.0.7
# https://unity3d.com/unity/features/worldbuilding/probuilder
# 28.11.2023 23:15:57

mtllib ./Arrow.mtl
o Arrow

g Arrow
v 0.2150002 -0.2943387 0
v 0.1075 -0.56 0.4330127
v 0 0.56 0
v 0 -0.2943387 0
v -0.1075001 -0.56 0.4330127
v -0.2150002 -0.2943387 -2.980232E-08
v -0.1075 -0.56 -0.4330127
v 0.1075 -0.56 -0.4330127

vt 0.800016 0.649067
vt 0.9576014 0.2179419
vt 0.34015 0.555225
vt 0.3447555 0.442866
vt 0.2864019 0.7186266
vt 0.2280484 0.442866
vt 0.4614624 0.3593133
vt 0.2280484 0.3593133
vt 0.3447555 1
vt 0.1696948 0.7186266
vt 0.5188296 0.4078919
vt 0.2430398 0.4295411
vt 0.06741374 0.8647866
vt 0.1113413 0.442866
vt 0.05950823 0.2225511
vt 0.1113413 0.2757606
vt 0.1696949 0
vt 0.2280484 0.2757607
vt 0.2864019 0
vt 0.9601269 0.1769698
vt 0.5136561 0.07035986
vt 0.3380298 0.5056052
vt 0.3447555 0.2757607

vn 0.9697633 0.2440475 0
vn 0.5357981 0.3487243 0.768968
vn -3.655525E-08 1 -1.827762E-07
vn 0 -0.8523675 -0.5229432
vn -0.5357982 0.3487243 0.7689679
vn -0.9697633 0.2440476 -1.439722E-07
vn -0.5357981 0.3487243 -0.768968
vn -7.248796E-08 -0.8523675 0.5229432
vn 0.5357981 0.3487243 -0.768968

usemtl arrowIndicator
f 3/3/3 2/2/2 1/1/1
f 1/4/4 2/5/4 4/6/4
f 3/9/3 5/8/5 2/7/2
f 2/5/4 5/10/4 4/6/4
f 3/13/3 6/12/6 5/11/5
f 5/10/4 6/14/4 4/6/4
f 3/13/3 7/15/7 6/12/6
f 6/16/8 7/17/8 4/18/8
f 3/9/3 8/8/9 7/7/7
f 7/17/8 8/19/8 4/18/8
f 3/22/3 1/21/1 8/20/9
f 8/19/8 1/23/8 4/18/8

